#!OML:ASF E:\Steps\Project 1\Capture day 1\Session 2\Subject.ASF
:FULLY-SPECIFIED
:DEGREES
252
root 9.14572 23.422 7.86626 24.9829 -24.3483 -356.158
lowerback -25.1755 -0.535234 -2.71014
upperback -4.07672 0.00772186 -0.59748
thorax 9.48655 -0.109034 0.890987
lowerneck 0.943444 0.0177152 -3.59447
upperneck 8.8018 -0.444658 6.60487
head 2.69487 -0.170319 2.78699
rclavicle 2.81032e-014 2.70347e-014
rhumerus -25.0807 15.1704 -67.3443
rradius 40.955
rwrist 1.00248
rhand 10.9861 -50.0064
rfingers 7.12502
rthumb 36.061 -76.3079
lclavicle 2.81032e-014 2.70347e-014
lhumerus -27.2122 -22.4449 65.1209
lradius 28.4923
lwrist -6.42131
lhand -24.3716 -17.6724
lfingers 7.12502
lthumb 2.11847 12.2968
rfemur -33.441 8.96661 9.93513
rtibia 13.9237
rfoot 16.4209 -18.4147
rtoes -22.9186
lfemur -35.4634 -3.59569 -16.3791
ltibia 14.0841
lfoot 27.68 14.7104
ltoes -49.0511
253
root 9.13548 23.1729 7.85912 25.0423 -23.2172 -356.201
lowerback -24.8884 -0.461621 -2.77858
upperback -4.03895 0.124881 -0.657217
thorax 9.37521 -0.0511717 0.902582
lowerneck 1.07783 -0.000110377 -3.63085
upperneck 8.80754 -0.470395 6.61929
head 2.67416 -0.185275 2.79727
rclavicle -1.81391e-014 -5.76476e-014
rhumerus -24.6401 15.2001 -67.2059
rradius 40.6378
rwrist 1.06378
rhand 10.2325 -49.5327
rfingers 7.12502
rthumb 35.3468 -76.0071
lclavicle -1.81391e-014 -5.76476e-014
lhumerus -28.1525 -23.0341 65.1074
lradius 28.4187
lwrist -6.19673
lhand -24.1595 -17.756
lfingers 7.12502
lthumb 2.32328 12.2111
rfemur -33.4178 9.06328 9.87864
rtibia 13.2651
rfoot 16.2828 -18.1824
rtoes -24.7368
lfemur -35.1009 -3.86995 -16.3664
ltibia 13.5181
lfoot 27.5006 14.5157
ltoes -49.4515
254
root 9.12215 22.9158 7.85443 25.2344 -22.1035 -356.424
lowerback -24.7676 -0.424223 -2.77198
upperback -3.85041 0.179172 -0.657267
thorax 9.522 -0.0254852 0.91622
lowerneck 0.98123 0.0499786 -3.59757
upperneck 8.78365 -0.394544 6.57717
head 2.67856 -0.145159 2.77839
rclavicle 5.23301e-014 -1.96797e-014
rhumerus -23.8046 15.2568 -67.0987
rradius 40.3908
rwrist 0.942585
rhand 10.071 -49.5457
rfingers 7.12502
rthumb 35.1937 -76.0563
lclavicle 5.23301e-014 -1.96797e-014
lhumerus -28.8283 -23.0936 64.8859
lradius 28.3271
lwrist -6.24266
lhand -23.9773 -18.1979
lfingers 7.12502
lthumb 2.49932 11.7672
rfemur -33.5447 9.026 10.1426
rtibia 12.7342
rfoot 16.1876 -18.1112
rtoes -25.5918
lfemur -34.8357 -4.14337 -16.0751
ltibia 12.9997
lfoot 27.0203 14.8241
ltoes -48.6958
255
root 9.10803 22.6503 7.8504 25.3887 -21.1049 -356.486
lowerback -23.9227 -0.620291 -3.40973
upperback -4.37686 -0.00344701 -0.212593
thorax 8.49627 -0.117509 1.71624
lowerneck 1.43234 0.0256582 -3.46279
upperneck 8.95944 -0.435231 6.40745
head 2.6541 -0.171462 2.69355
rclavicle 1.93815e-015 -2.38542e-014
rhumerus -24.0692 16.2463 -66.7023
rradius 40.4957
rwrist 1.24486
rhand 10.4689 -49.9534
rfingers 7.12502
rthumb 35.571 -76.3742
lclavicle 1.93815e-015 -2.38542e-014
lhumerus -31.0193 -22.6595 65.7918
lradius 28.2676
lwrist -6.61611
lhand -24.0386 -18.4142
lfingers 7.12502
lthumb 2.44006 11.5516
rfemur -33.8078 8.91651 10.2737
rtibia 12.3656
rfoot 16.1797 -18.0725
rtoes -25.6578
lfemur -34.6364 -4.37274 -15.9607
ltibia 12.5284
lfoot 26.2547 15.7804
ltoes -46.1384
256
root 9.09213 22.3735 7.85165 25.6045 -20.1189 -356.542
lowerback -24.6122 -0.338309 -3.19783
upperback -3.83422 0.394921 -0.549957
thorax 9.44637 0.06542 1.34922
lowerneck 1.15059 0.0995788 -3.68234
upperneck 8.75947 -0.322314 6.5403
head 2.63541 -0.114132 2.78095
rclavicle 5.22555e-014 2.74323e-014
rhumerus -23.0656 15.1561 -66.7324
rradius 40.2704
rwrist 1.88255
rhand 11.1046 -50.2075
rfingers 7.12502
rthumb 36.1732 -76.4813
lclavicle 5.22555e-014 2.74323e-014
lhumerus -30.9708 -23.0913 65.4409
lradius 28.2995
lwrist -6.06579
lhand -24.161 -18.4835
lfingers 7.12502
lthumb 2.32185 11.4836
rfemur -34.1131 8.7728 10.4222
rtibia 11.9825
rfoot 16.2597 -17.7074
rtoes -26.0028
lfemur -34.4484 -4.6082 -15.8541
ltibia 11.9869
lfoot 25.8855 16.1849
ltoes -44.8952
257
root 9.07888 22.0832 7.85059 25.9888 -18.7111 -356.758
lowerback -23.7263 -0.468751 -3.09229
upperback -4.55284 0.136719 -0.488547
thorax 8.19402 -0.0299638 1.27367
lowerneck 1.7764 0.0299717 -3.43311
upperneck 8.94361 -0.431372 6.39509
head 2.58528 -0.172987 2.6809
rclavicle 1.32813e-014 -1.56046e-014
rhumerus -23.6659 16.0105 -67.2501
rradius 40.3454
rwrist 1.83594
rhand 11.9891 -50.7424
rfingers 7.12502
rthumb 37.0104 -76.8042
lclavicle 1.32813e-014 -1.56046e-014
lhumerus -33.1613 -22.7467 65.7327
lradius 28.4946
lwrist -5.4074
lhand -23.9207 -18.8771
lfingers 7.12502
lthumb 2.55394 11.0874
rfemur -34.359 8.09507 10.9936
rtibia 11.5632
rfoot 16.1849 -16.8949
rtoes -26.9683
lfemur -34.4997 -4.90639 -15.6244
ltibia 11.6015
lfoot 25.9519 15.5972
ltoes -45.4813
258
root 9.05878 21.7858 7.84262 26.1909 -17.6263 -356.635
lowerback -24.7609 -0.176748 -2.92644
upperback -3.69065 0.607821 -1.0571
thorax 9.68625 0.183097 0.70027
lowerneck 1.04316 0.0206907 -3.56973
upperneck 8.87857 -0.428213 6.53543
head 2.70049 -0.158785 2.75952
rclavicle -9.69696e-015 3.22528e-014
rhumerus -22.3865 14.7279 -67.5457
rradius 40.2212
rwrist 1.86827
rhand 12.5376 -51.6281
rfingers 7.12502
rthumb 37.529 -77.5539
lclavicle -9.69696e-015 3.22528e-014
lhumerus -32.0409 -23.077 64.9361
lradius 28.3544
lwrist -4.01365
lhand -23.7473 -18.752
lfingers 7.12502
lthumb 2.7214 11.2103
rfemur -34.7972 7.72729 11.0568
rtibia 11.4509
rfoot 15.7732 -16.6133
rtoes -27.2651
lfemur -34.4812 -5.23477 -15.6371
ltibia 11.1155
lfoot 25.87 15.281
ltoes -45.8394
259
root 9.03926 21.4821 7.82685 26.0776 -16.4314 -356.535
lowerback -24.3639 -0.216419 -3.30993
upperback -3.51565 0.659089 -1.12127
thorax 9.66845 0.196971 0.864092
lowerneck 1.13237 0.0602627 -3.50047
upperneck 8.83494 -0.371421 6.50559
head 2.66507 -0.12997 2.73589
rclavicle -4.48508e-015 -1.67662e-014
rhumerus -22.1073 14.6102 -67.8114
rradius 40.2454
rwrist 1.86007
rhand 12.6038 -52.4756
rfingers 7.12502
rthumb 37.5916 -78.3848
lclavicle -4.48508e-015 -1.67662e-014
lhumerus -32.5949 -23.2853 65.2579
lradius 28.1883
lwrist -3.08149
lhand -24.4964 -18.4973
lfingers 7.12502
lthumb 1.99792 11.4731
rfemur -34.8566 7.25308 11.3224
rtibia 11.2778
rfoot 15.7488 -16.2786
rtoes -27.4972
lfemur -34.2009 -5.53073 -15.6637
ltibia 10.7123
lfoot 25.6975 15.0726
ltoes -45.6014
260
root 9.02088 21.1664 7.81816 26.2153 -14.8177 -357.045
lowerback -23.8959 -0.157925 -2.98763
upperback -3.4745 0.625721 -0.990678
thorax 9.47093 0.195429 0.811965
lowerneck 1.22709 0.0774599 -3.50825
upperneck 8.84252 -0.347398 6.49515
head 2.64881 -0.119053 2.7335
rclavicle -2.20371e-015 2.49692e-014
rhumerus -21.867 14.4829 -68.0587
rradius 40.0308
rwrist 1.85677
rhand 12.7675 -52.9326
rfingers 7.12502
rthumb 37.7463 -78.8004
lclavicle -2.20371e-015 2.49692e-014
lhumerus -33.3515 -23.6071 65.864
lradius 28.1572
lwrist -2.06538
lhand -25.1835 -18.6002
lfingers 7.12502
lthumb 1.3343 11.3754
rfemur -34.7516 6.80702 12.3707
rtibia 10.8698
rfoot 15.8355 -15.914
rtoes -26.9732
lfemur -34.0995 -5.76162 -14.9852
ltibia 10.5061
lfoot 25.5131 14.8613
ltoes -44.8361
261
root 9.00418 20.8221 7.83467 26.5689 -13.133 -357.413
lowerback -24.4169 -0.136935 -2.59887
upperback -3.1712 0.58167 -0.952661
thorax 10.0933 0.179917 0.619442
lowerneck 0.931086 0.0704111 -3.57504
upperneck 8.84688 -0.34862 6.52297
head 2.70571 -0.115051 2.75825
rclavicle 2.98177e-016 -2.88735e-014
rhumerus -21.2009 14.0299 -68.3035
rradius 39.5435
rwrist 1.80059
rhand 12.6337 -52.7203
rfingers 7.12502
rthumb 37.6198 -78.622
lclavicle 2.98177e-016 -2.88735e-014
lhumerus -33.6526 -23.4667 66.1486
lradius 28.2192
lwrist -1.52955
lhand -25.2232 -18.7757
lfingers 7.12502
lthumb 1.29601 11.2001
rfemur -34.7165 5.99498 13.3763
rtibia 10.3412
rfoot 15.7352 -15.4115
rtoes -26.8753
lfemur -34.0988 -6.217 -14.506
ltibia 10.1736
lfoot 25.4399 14.4907
ltoes -44.2342
262
root 8.97686 20.5019 7.7653 26.0957 -12.0191 -356.705
lowerback -22.8531 -0.355428 -3.80079
upperback -3.13917 0.560142 -1.1209
thorax 9.2868 0.143862 1.10948
lowerneck 0.751759 0.0697059 -3.59747
upperneck 8.84785 -0.343613 6.53582
head 2.73919 -0.109004 2.76866
rclavicle -8.48562e-015 -1.60022e-014
rhumerus -20.7681 13.4555 -68.6959
rradius 38.9908
rwrist 1.81364
rhand 12.3314 -52.3951
rfingers 7.12502
rthumb 37.3341 -78.3725
lclavicle -8.48562e-015 -1.60022e-014
lhumerus -34.2111 -22.9665 66.379
lradius 28.3635
lwrist -1.86091
lhand -25.1399 -19.0439
lfingers 7.12502
lthumb 1.37644 10.9314
rfemur -35.0767 6.49886 12.4457
rtibia 10.6504
rfoot 15.1325 -16.1271
rtoes -28.6837
lfemur -34.1775 -6.73799 -15.0077
ltibia 10.486
lfoot 25.6184 14.4126
ltoes -43.9279
263
root 8.96534 20.1156 7.82523 26.8144 -10.272 -357.361
lowerback -24.0295 -0.271992 -3.00183
upperback -2.96784 0.511781 -0.958614
thorax 10.1149 0.133815 0.820517
lowerneck 0.658155 0.063539 -3.65717
upperneck 8.86358 -0.34772 6.54741
head 2.76276 -0.110025 2.78491
rclavicle 4.28629e-015 -6.80837e-015
rhumerus -20.4249 12.864 -69.0136
rradius 38.49
rwrist 1.96829
rhand 12.46 -52.5063
rfingers 7.12502
rthumb 37.4556 -78.4516
lclavicle 4.28629e-015 -6.80837e-015
lhumerus -34.811 -22.5023 66.8757
lradius 28.4674
lwrist -2.03954
lhand -25.4016 -19.3829
lfingers 7.12502
lthumb 1.12367 10.5939
rfemur -35.2372 4.9552 14.2035
rtibia 10.4722
rfoot 16.0105 -14.2083
rtoes -29.3727
lfemur -34.3716 -6.88921 -14.4567
ltibia 10.318
lfoot 26.3316 13.9743
ltoes -44.1905
